<svg width="30" height="30" viewBox="0 0 30 30" fill="none" xmlns="http://www.w3.org/2000/svg">
<path d="M19.8009 14.4975L15.9375 18.3619V8.4375C15.9375 7.92 15.5175 7.5 15 7.5C14.4825 7.5 14.0625 7.92 14.0625 8.4375V18.3619L10.1991 14.4984C9.8325 14.1319 9.23907 14.1319 8.87343 14.4984C8.50686 14.865 8.50686 15.4584 8.87343 15.824L14.1769 21.1275C14.4019 21.3525 14.7094 21.4218 15.001 21.3702C15.2916 21.4218 15.6 21.3515 15.825 21.1275L21.1285 15.824C21.495 15.4575 21.495 14.8641 21.1285 14.4984C20.7609 14.1319 20.1675 14.1319 19.8009 14.4975ZM15 0C6.71627 0 0 6.71529 0 15C0 23.2847 6.71627 30 15 30C23.2837 30 30 23.2837 30 15C30 6.71627 23.2847 0 15 0ZM15 28.125C7.75123 28.125 1.875 22.2488 1.875 15C1.875 7.75123 7.75123 1.875 15 1.875C22.2488 1.875 28.125 7.75123 28.125 15C28.125 22.2488 22.2488 28.125 15 28.125Z" fill="black"/>
</svg>
