<svg width="30" height="31" viewBox="0 0 30 31" fill="none" xmlns="http://www.w3.org/2000/svg">
<path d="M30 15.0436C30.0052 18.4025 28.8829 21.6659 26.8128 24.3111C24.7428 26.9563 21.8449 28.8301 18.5833 29.6325C15.3216 30.4349 11.8851 30.1193 8.82414 28.7364C5.76318 27.3535 3.25494 24.9832 1.70125 22.0053C0.147549 19.0274 -0.361699 15.6141 0.255082 12.3124C0.871862 9.01063 2.57897 6.01143 5.10295 3.79523C7.62693 1.57904 10.8217 0.274106 14.1755 0.0894758C17.5293 -0.0951541 20.848 0.851204 23.6 2.77695L23.4167 2.24362C23.2752 1.81264 23.3108 1.34313 23.5155 0.938359C23.7202 0.533594 24.0773 0.226734 24.5083 0.0852852C24.9393 -0.0561636 25.4088 -0.0206143 25.8136 0.184113C26.2183 0.38884 26.5252 0.745975 26.6667 1.17695L28.3333 6.17695C28.416 6.42759 28.4379 6.69428 28.3973 6.95506C28.3568 7.21584 28.2549 7.46325 28.1 7.67695C27.9386 7.90415 27.7229 8.08727 27.4725 8.20956C27.2221 8.33184 26.945 8.3894 26.6667 8.37695H21.6667C21.2246 8.37695 20.8007 8.20135 20.4881 7.88879C20.1756 7.57623 20 7.15231 20 6.71028C20.006 6.35751 20.1238 6.01575 20.3365 5.73421C20.5491 5.45267 20.8456 5.24588 21.1833 5.14362C18.9909 3.77334 16.4054 3.17015 13.8329 3.42878C11.2605 3.68741 8.8468 4.79321 6.97101 6.5725C5.09523 8.35178 3.86361 10.7038 3.46961 13.259C3.0756 15.8142 3.54153 18.4279 4.79421 20.6896C6.0469 22.9513 8.01536 24.7328 10.3904 25.7543C12.7655 26.7758 15.4126 26.9795 17.916 26.3333C20.4193 25.6871 22.6371 24.2276 24.221 22.1842C25.8049 20.1407 26.6652 17.629 26.6667 15.0436C26.6667 14.6016 26.8422 14.1777 27.1548 13.8651C27.4674 13.5525 27.8913 13.3769 28.3333 13.3769C28.7753 13.3769 29.1993 13.5525 29.5118 13.8651C29.8244 14.1777 30 14.6016 30 15.0436Z" fill="white"/>
</svg>
