<svg width="30" height="30" viewBox="0 0 30 30" fill="none" xmlns="http://www.w3.org/2000/svg">
<path d="M15 0C12.0333 0 9.13319 0.879734 6.66645 2.52796C4.19972 4.17618 2.27713 6.51886 1.14181 9.25975C0.00649929 12.0006 -0.290551 15.0166 0.288227 17.9263C0.867006 20.8361 2.29562 23.5088 4.3934 25.6066C6.49119 27.7044 9.16394 29.133 12.0737 29.7118C14.9834 30.2905 17.9994 29.9935 20.7403 28.8582C23.4811 27.7229 25.8238 25.8003 27.472 23.3335C29.1203 20.8668 30 17.9667 30 15C30 11.0217 28.4196 7.20644 25.6066 4.3934C22.7936 1.58035 18.9783 0 15 0ZM15 27.5C12.5277 27.5 10.111 26.7669 8.05538 25.3934C5.99976 24.0198 4.39761 22.0676 3.45151 19.7835C2.50542 17.4995 2.25788 14.9861 2.74019 12.5614C3.22251 10.1366 4.41302 7.90932 6.16117 6.16116C7.90933 4.41301 10.1366 3.2225 12.5614 2.74018C14.9861 2.25787 17.4995 2.50541 19.7835 3.4515C22.0676 4.3976 24.0199 5.99976 25.3934 8.05537C26.7669 10.111 27.5 12.5277 27.5 15C27.5 18.3152 26.183 21.4946 23.8388 23.8388C21.4946 26.183 18.3152 27.5 15 27.5ZM7.50001 13.75C7.25278 13.75 7.0111 13.8233 6.80554 13.9607C6.59998 14.098 6.43977 14.2932 6.34516 14.5216C6.25055 14.75 6.22579 15.0014 6.27402 15.2439C6.32226 15.4863 6.44131 15.7091 6.61612 15.8839C6.79094 16.0587 7.01367 16.1777 7.25614 16.226C7.49862 16.2742 7.74995 16.2495 7.97836 16.1548C8.20677 16.0602 8.40199 15.9 8.53934 15.6945C8.67669 15.4889 8.75001 15.2472 8.75001 15C8.75001 14.6685 8.61831 14.3505 8.38389 14.1161C8.14947 13.8817 7.83153 13.75 7.50001 13.75ZM12.5 13.75C12.2528 13.75 12.0111 13.8233 11.8055 13.9607C11.6 14.098 11.4398 14.2932 11.3452 14.5216C11.2505 14.75 11.2258 15.0014 11.274 15.2439C11.3223 15.4863 11.4413 15.7091 11.6161 15.8839C11.7909 16.0587 12.0137 16.1777 12.2561 16.226C12.4986 16.2742 12.75 16.2495 12.9784 16.1548C13.2068 16.0602 13.402 15.9 13.5393 15.6945C13.6767 15.4889 13.75 15.2472 13.75 15C13.75 14.6685 13.6183 14.3505 13.3839 14.1161C13.1495 13.8817 12.8315 13.75 12.5 13.75ZM17.5 13.75C17.2528 13.75 17.0111 13.8233 16.8055 13.9607C16.6 14.098 16.4398 14.2932 16.3452 14.5216C16.2505 14.75 16.2258 15.0014 16.274 15.2439C16.3223 15.4863 16.4413 15.7091 16.6161 15.8839C16.7909 16.0587 17.0137 16.1777 17.2561 16.226C17.4986 16.2742 17.75 16.2495 17.9784 16.1548C18.2068 16.0602 18.402 15.9 18.5393 15.6945C18.6767 15.4889 18.75 15.2472 18.75 15C18.75 14.6685 18.6183 14.3505 18.3839 14.1161C18.1495 13.8817 17.8315 13.75 17.5 13.75ZM22.5 13.75C22.2528 13.75 22.0111 13.8233 21.8055 13.9607C21.6 14.098 21.4398 14.2932 21.3452 14.5216C21.2505 14.75 21.2258 15.0014 21.274 15.2439C21.3223 15.4863 21.4413 15.7091 21.6161 15.8839C21.7909 16.0587 22.0137 16.1777 22.2561 16.226C22.4986 16.2742 22.7499 16.2495 22.9784 16.1548C23.2068 16.0602 23.402 15.9 23.5393 15.6945C23.6767 15.4889 23.75 15.2472 23.75 15C23.75 14.6685 23.6183 14.3505 23.3839 14.1161C23.1495 13.8817 22.8315 13.75 22.5 13.75Z" fill="black"/>
</svg>
