<svg width="277" height="68" viewBox="0 0 277 68" fill="none" xmlns="http://www.w3.org/2000/svg">
<path opacity="0.96" d="M154.268 63.7371C153.069 62.1081 152.518 60.0643 152.534 58.0556C152.526 56.096 152.528 54.1364 152.529 52.177C152.531 50.0864 152.532 47.9961 152.523 45.9058C154.293 45.9284 156.063 45.9259 157.833 45.9058C157.825 48.3511 157.826 50.7951 157.827 53.2389V53.2407C157.828 54.5977 157.829 55.9547 157.828 57.3115C157.883 58.7822 158.092 60.3383 158.949 61.5752C160.654 63.9911 164.852 63.7824 166.327 61.2182C167.006 60.0442 167.195 58.6514 167.177 57.314C167.169 55.6621 167.171 54.0092 167.173 52.3563V52.355C167.176 50.2056 167.178 48.0557 167.16 45.9058C168.907 45.9284 170.656 45.9259 172.404 45.9058C172.393 48.0489 172.395 50.1913 172.397 52.3332V52.3352C172.399 54.238 172.401 56.1405 172.394 58.0431C172.401 58.9959 172.248 59.9361 172.059 60.8662C171.431 62.8497 170.242 64.7503 168.371 65.7684C165.624 67.4276 162.252 67.3723 159.18 66.9022C157.32 66.2838 155.417 65.3963 154.268 63.7371Z" fill="white" stroke="white"/>
<path opacity="0.96" d="M156.257 2.29395C156.257 5.4379 156.257 8.58163 156.258 11.7253C156.259 19.5841 156.26 27.4425 156.254 35.3021C157.122 35.3021 157.99 35.3011 158.857 35.3004C161.026 35.2983 163.196 35.2963 165.365 35.3071C165.361 33.2495 165.362 31.1926 165.363 29.1357C165.363 26.5657 165.364 23.9957 165.357 21.425C165.36 20.7362 165.415 19.884 166.084 19.5019C166.586 19.4164 167.258 19.3385 167.625 19.7759C170.085 22.751 172.556 25.718 175.027 28.6844L175.027 28.6849L175.032 28.6902L175.034 28.693C176.868 30.8949 178.702 33.0969 180.531 35.3021C181.415 35.3029 182.299 35.3016 183.183 35.3006C184.952 35.2983 186.72 35.2961 188.488 35.3097C188.493 29.4859 188.492 23.6621 188.491 17.838C188.49 12.6579 188.489 7.47746 188.493 2.29646C187.278 2.29545 186.063 2.29606 184.849 2.29666C183.027 2.29757 181.206 2.29847 179.385 2.29395C179.386 4.06056 179.386 5.82716 179.386 7.59391C179.386 10.5361 179.385 13.4787 179.39 16.4223C179.383 16.5088 179.379 16.5985 179.374 16.6897V16.6913C179.355 17.1088 179.334 17.5564 179.02 17.8552C178.63 18.3 177.936 18.1603 177.425 18.0575L177.406 18.0538C176.804 17.5382 176.311 16.9156 175.818 16.2927C175.54 15.9409 175.262 15.5888 174.963 15.2558C172.002 11.677 169.035 8.09994 166.068 4.52315L166.068 4.52255L166.065 4.51948L165.842 4.25054C165.302 3.59918 164.761 2.94782 164.221 2.29646C163.083 2.29538 161.945 2.29569 160.808 2.296C159.291 2.29641 157.774 2.29682 156.257 2.29395Z" fill="white" stroke="white"/>
<path opacity="0.96" d="M196.423 8.77514C196.425 6.45402 196.427 4.13282 196.424 1.81128C197.469 1.81128 198.513 1.81156 199.557 1.81184C201.646 1.8124 203.737 1.81295 205.827 1.81128C205.827 3.7956 205.826 5.77996 205.826 7.76429C205.826 11.733 205.825 15.7017 205.827 19.6703C205.874 21.7418 206.068 23.9314 207.182 25.7341C209.361 29.3039 215.38 29.3843 217.637 25.8572C218.856 23.9641 219.063 21.6236 219.047 19.4265C219.049 16.4914 219.049 13.5558 219.049 10.6198C219.049 7.68384 219.049 4.74756 219.05 1.81128C220.585 1.81254 222.119 1.81254 223.654 1.81254C225.189 1.81254 226.724 1.81254 228.258 1.81379C228.252 4.25892 228.255 6.70469 228.259 9.15042V9.1509C228.265 13.0818 228.271 17.0134 228.233 20.9449C228.193 25.0099 226.773 29.241 223.623 31.946C220.463 34.7214 216.104 35.6314 211.998 35.5284C207.855 35.5585 203.499 34.3921 200.497 31.403C197.659 28.6351 196.487 24.5876 196.437 20.7086C196.416 16.7327 196.42 12.7579 196.423 8.78286V8.77514Z" fill="white" stroke="white"/>
<path opacity="0.96" d="M244.439 35.3411L244.574 35.3423C244.565 31.4289 244.568 27.5157 244.57 23.6025L244.571 21.6538C244.552 21.3315 244.624 21.0242 244.752 20.7395C244.857 20.562 244.983 20.3954 245.119 20.2416C245.388 20.2416 245.923 20.2441 246.192 20.2466C246.885 20.8807 247.363 21.6815 247.84 22.4809C248.016 22.7749 248.191 23.0686 248.377 23.3539C249.098 24.557 249.841 25.7474 250.583 26.9375V26.9377L250.583 26.9382L250.584 26.9387L250.585 26.9403L250.585 26.9413C251.705 28.737 252.824 30.5324 253.872 32.3714C254.84 32.3804 255.811 32.3789 256.783 32.3774C257.148 32.3769 257.512 32.3764 257.877 32.3764C258.925 30.55 260.001 28.7387 261.075 26.9274C261.859 25.6049 262.643 24.2825 263.418 22.9541C263.609 22.6416 263.792 22.3239 263.976 22.0062V22.0059V22.0056V22.005V22.0046C264.426 21.2267 264.876 20.4486 265.434 19.7438C265.836 19.7413 266.238 19.7413 266.646 19.7413C267.42 20.4488 267.39 21.4609 267.365 22.4364V22.4397V22.4402C267.357 22.6975 267.35 22.9522 267.357 23.198C267.332 25.263 267.37 27.3274 267.407 29.3921C267.448 31.4573 267.488 33.5225 267.46 35.5892C268.461 35.591 269.461 35.5897 270.462 35.5882C272.264 35.5857 274.064 35.5832 275.867 35.5993V35.3411L276 35.3423C275.955 24.3136 275.932 13.2824 275.932 2.25122C273.881 2.26882 271.832 2.26512 269.783 2.26143C269.197 2.26038 268.612 2.25932 268.026 2.25876C266.515 4.82878 264.999 7.39675 263.481 9.96454V9.96617V9.96851L263.478 9.97153L263.476 9.97548L263.473 9.97894L263.471 9.9838L263.468 9.98842L263.463 9.99513L263.458 10.0041C261.608 13.1374 259.757 16.2704 257.915 19.4063C257.869 19.4813 257.824 19.5573 257.781 19.6337C257.47 20.1596 257.15 20.7023 256.618 21.0228C256.145 21.1938 255.501 21.1636 255.242 20.6683C254.79 20.015 254.388 19.329 253.983 18.643V18.6424V18.6419V18.6416V18.6408V18.6406C253.716 18.187 253.45 17.7335 253.168 17.2896C251.984 15.3116 250.784 13.3415 249.584 11.3713L249.58 11.3662L249.58 11.3658C247.739 8.34224 245.897 5.31855 244.106 2.2663C243.008 2.26107 241.909 2.26238 240.811 2.26368C239.273 2.26552 237.736 2.26735 236.198 2.25122L236.197 2.50962L236.064 2.50827C236.052 8.55688 236.054 14.6063 236.056 20.6556C236.058 25.6362 236.059 30.6166 236.053 35.5968C238.849 35.5842 241.644 35.5766 244.44 35.5993L244.439 35.3411Z" fill="white" stroke="white"/>
<path opacity="0.96" d="M78.8819 47.5923C76.5414 49.1207 74.9853 51.7126 74.5252 54.4528C74.2738 56.6676 74.3668 59.0005 75.3674 61.0368C76.7852 64.2195 79.9277 66.4393 83.3265 67.0301C87.2231 67.7164 91.3183 66.8742 94.7574 64.9535C94.7599 64.0219 94.7584 63.09 94.7567 62.1583V62.156C94.7536 60.4264 94.7504 58.6974 94.775 56.9693C93.3345 56.9869 91.894 56.9919 90.4535 56.9642C90.4493 57.4595 90.4598 57.9565 90.4701 58.454C90.4968 59.7095 90.5234 60.9679 90.3128 62.2083C88.2664 63.7217 85.3377 63.6513 83.1053 62.5754C81.7578 61.7231 80.5939 60.436 80.1715 58.8698C79.5657 56.8411 79.709 54.5735 80.6467 52.6679C81.519 51.2249 82.8992 49.9906 84.5961 49.6612C87.1276 48.9548 89.8929 49.7819 91.8186 51.514C92.8292 50.5461 93.8499 49.5909 94.946 48.721C93.146 46.921 90.6723 45.8727 88.1533 45.6289C84.9706 45.2141 81.5617 45.7495 78.8819 47.5923Z" fill="white" stroke="white"/>
<g opacity="0.96">
<path fill-rule="evenodd" clip-rule="evenodd" d="M125.649 50.6593C127.404 47.6928 130.723 45.8878 134.094 45.5107C137.171 45.1538 140.457 45.6918 143.028 47.4968C145.313 48.975 146.842 51.4612 147.398 54.1009C147.674 56.3961 147.667 58.8573 146.563 60.9539C145.258 63.9178 142.41 65.9893 139.323 66.7787C135.836 67.6033 131.949 67.2413 128.905 65.2527C126.471 63.7569 124.8 61.1625 124.279 58.3721C123.9 55.7475 124.189 52.9294 125.649 50.6593ZM134.382 49.5013C136.534 48.9784 138.947 49.7351 140.408 51.4043C142.668 54.1269 142.668 58.4735 140.416 61.1986C138.316 63.6723 134.173 63.9916 131.77 61.7894C129.995 60.271 129.291 57.8299 129.515 55.5599C129.621 52.792 131.599 50.0593 134.382 49.5013Z" fill="white"/>
<path d="M134.094 45.5107L134.149 46.0077L134.151 46.0074L134.094 45.5107ZM125.649 50.6593L126.07 50.9298L126.075 50.9219L126.08 50.9139L125.649 50.6593ZM143.028 47.4968L142.741 47.906L142.749 47.9115L142.757 47.9166L143.028 47.4968ZM147.398 54.1009L147.894 54.0411L147.891 54.0193L147.887 53.9979L147.398 54.1009ZM146.563 60.9539L146.12 60.721L146.112 60.7365L146.105 60.7524L146.563 60.9539ZM139.323 66.7787L139.438 67.2654L139.447 67.2631L139.323 66.7787ZM128.905 65.2527L129.179 64.834L129.167 64.8268L128.905 65.2527ZM124.279 58.3721L123.784 58.4436L123.786 58.4537L123.788 58.4637L124.279 58.3721ZM140.408 51.4043L140.793 51.0848L140.784 51.0751L140.408 51.4043ZM134.382 49.5013L134.48 49.9915L134.49 49.9895L134.5 49.9871L134.382 49.5013ZM140.416 61.1986L140.797 61.5222L140.801 61.5172L140.416 61.1986ZM131.77 61.7894L132.108 61.4208L132.102 61.415L132.095 61.4095L131.77 61.7894ZM129.515 55.5599L130.013 55.6089L130.014 55.5939L130.015 55.5789L129.515 55.5599ZM134.038 45.0138C130.542 45.4049 127.068 47.2785 125.219 50.4047L126.08 50.9139C127.74 48.1072 130.903 46.3707 134.149 46.0077L134.038 45.0138ZM143.316 47.0875C140.619 45.1949 137.202 44.6468 134.036 45.0141L134.151 46.0074C137.14 45.6607 140.294 46.1886 142.741 47.906L143.316 47.0875ZM147.887 53.9979C147.308 51.2472 145.713 48.6376 143.3 47.0769L142.757 47.9166C144.914 49.3123 146.376 51.6753 146.908 54.2039L147.887 53.9979ZM147.005 61.1868C148.182 58.9519 148.174 56.3639 147.894 54.0411L146.901 54.1607C147.174 56.4284 147.151 58.7626 146.12 60.721L147.005 61.1868ZM139.447 67.2631C142.653 66.4432 145.643 64.2853 147.021 61.1553L146.105 60.7524C144.874 63.5503 142.166 65.5355 139.199 66.2943L139.447 67.2631ZM128.632 65.6713C131.815 67.7506 135.849 68.114 139.438 67.2653L139.208 66.2921C135.823 67.0925 132.084 66.7319 129.178 64.8341L128.632 65.6713ZM123.788 58.4637C124.332 61.3818 126.08 64.1031 128.643 65.6787L129.167 64.8268C126.863 63.4107 125.267 60.9432 124.771 58.2804L123.788 58.4637ZM125.229 50.3888C123.683 52.7921 123.394 55.7436 123.784 58.4436L124.774 58.3005C124.405 55.7514 124.695 53.0667 126.07 50.9298L125.229 50.3888ZM140.784 51.0751C139.2 49.2647 136.596 48.4488 134.264 49.0154L134.5 49.9871C136.472 49.5079 138.695 50.2054 140.032 51.7336L140.784 51.0751ZM140.801 61.5172C143.206 58.6072 143.207 53.9928 140.793 51.085L140.023 51.7237C142.13 54.2611 142.13 58.3398 140.03 60.8801L140.801 61.5172ZM131.432 62.158C134.051 64.5573 138.519 64.2059 140.797 61.5221L140.034 60.8751C138.113 63.1387 134.296 63.426 132.108 61.4208L131.432 62.158ZM129.018 55.5108C128.782 57.9014 129.517 60.5199 131.445 62.1693L132.095 61.4095C130.473 60.0221 129.801 57.7585 130.013 55.6089L129.018 55.5108ZM134.284 49.011C131.239 49.6217 129.128 52.5803 129.015 55.5408L130.015 55.5789C130.113 53.0037 131.96 50.497 134.48 49.9915L134.284 49.011Z" fill="white"/>
</g>
<g opacity="0.96">
<path fill-rule="evenodd" clip-rule="evenodd" d="M100.683 46.1696L100.683 46.1671C103.071 46.1794 105.457 46.1767 107.843 46.1739L107.844 46.1739L109.434 46.1722C111.571 46.1219 113.801 46.2476 115.739 47.2406C117.756 48.1531 119.314 50.0788 119.603 52.2936C119.792 54.0056 119.767 55.8559 118.822 57.3642C118.221 58.5754 117.097 59.3344 116.004 60.0717C115.843 60.1806 115.682 60.2892 115.523 60.3985C115.53 60.5191 115.53 60.6432 115.53 60.7686V60.7689L115.53 60.7699C115.529 61.1982 115.528 61.6395 115.81 61.9874C116.187 62.5378 116.56 63.0923 116.932 63.6469L116.966 63.6966L116.966 63.6971L116.973 63.7079L116.974 63.7084L116.974 63.7089L116.981 63.7187C117.708 64.8017 118.436 65.8856 119.201 66.9423C118.308 66.9275 117.416 66.9298 116.523 66.932H116.522C115.597 66.9343 114.673 66.9363 113.748 66.9197C113.181 65.9458 112.537 65.0219 111.893 64.0983C111.297 63.2436 110.701 62.3888 110.166 61.4946C109.208 61.0748 108.14 61.0748 107.119 61.2005C106.458 61.2608 105.968 61.8994 106.008 62.5505C105.973 63.5739 105.983 64.5973 105.993 65.6197L105.994 65.7053C105.998 66.1187 106.002 66.5319 106.003 66.9448C104.231 66.9197 102.456 66.9298 100.683 66.9398C100.688 60.0173 100.686 53.0947 100.683 46.1696ZM106.744 49.9665C107.403 49.8134 108.082 49.8255 108.759 49.8375L108.777 49.8379C109.05 49.8425 109.322 49.8472 109.592 49.8408C110.789 49.8333 112.124 49.9891 113.031 50.8539C114.188 51.862 114.494 53.5991 114.069 55.0271C113.755 56.3745 112.538 57.4027 111.186 57.6064C110.042 57.7982 108.87 57.7632 107.711 57.7285L107.584 57.7248C107.494 57.722 107.404 57.7195 107.315 57.717C106.55 57.7647 105.872 57.091 105.934 56.3268C105.902 54.6349 105.902 52.943 105.934 51.2536C105.912 50.7081 106.221 50.1601 106.744 49.9665Z" fill="white"/>
<path d="M100.683 46.1671L100.686 45.6671L100.183 45.6645L100.183 46.1673L100.683 46.1671ZM100.683 46.1696L101.183 46.1695L100.683 46.1696ZM107.843 46.1739L107.842 45.6739L107.843 46.1739ZM107.844 46.1739L107.843 45.6739L107.843 45.6739L107.844 46.1739ZM109.434 46.1722L109.435 46.6723L109.446 46.672L109.434 46.1722ZM115.739 47.2406L115.511 47.6856L115.522 47.6911L115.533 47.6961L115.739 47.2406ZM119.603 52.2936L120.1 52.2389L120.099 52.2289L119.603 52.2936ZM118.822 57.3642L118.398 57.0987L118.385 57.1199L118.374 57.1423L118.822 57.3642ZM116.004 60.0717L116.284 60.4863L116.284 60.4862L116.004 60.0717ZM115.523 60.3985L115.239 59.9871L115.008 60.1465L115.024 60.4266L115.523 60.3985ZM115.53 60.7686L115.03 60.7676V60.7686H115.53ZM115.53 60.7689L116.03 60.7702V60.7689H115.53ZM115.53 60.7699L115.03 60.7685L115.03 60.769L115.53 60.7699ZM115.81 61.9874L116.222 61.7045L116.211 61.6881L116.198 61.6726L115.81 61.9874ZM116.932 63.6469L116.517 63.9256L116.517 63.9256L116.932 63.6469ZM116.966 63.6966L117.413 63.4723L117.398 63.444L117.381 63.4178L116.966 63.6966ZM116.966 63.6971L116.519 63.9214L116.534 63.9501L116.552 63.9768L116.966 63.6971ZM116.973 63.7079L116.559 63.9876L116.585 64.0267L116.618 64.0601L116.973 63.7079ZM116.974 63.7084L117.421 63.4841L117.385 63.4128L117.329 63.3562L116.974 63.7084ZM116.974 63.7089L116.527 63.9332L116.541 63.9614L116.559 63.9877L116.974 63.7089ZM116.981 63.7187L116.566 63.9974L116.566 63.9975L116.981 63.7187ZM119.201 66.9423L119.193 67.4423L120.193 67.4589L119.606 66.6491L119.201 66.9423ZM116.523 66.932V67.432L116.524 67.432L116.523 66.932ZM116.522 66.932V66.432L116.52 66.432L116.522 66.932ZM113.748 66.9197L113.316 67.1716L113.458 67.4146L113.739 67.4196L113.748 66.9197ZM111.893 64.0983L111.483 64.3842L111.893 64.0983ZM110.166 61.4946L110.595 61.2378L110.513 61.1008L110.367 61.0367L110.166 61.4946ZM107.119 61.2005L107.165 61.6984L107.172 61.6977L107.18 61.6967L107.119 61.2005ZM106.008 62.5505L106.508 62.5677L106.509 62.5436L106.507 62.5197L106.008 62.5505ZM105.993 65.6197L106.493 65.6149L106.493 65.6147L105.993 65.6197ZM105.994 65.7053L105.494 65.7102V65.7102L105.994 65.7053ZM106.003 66.9448L105.996 67.4448L106.504 67.452L106.503 66.944L106.003 66.9448ZM100.683 66.9398L100.183 66.9395L100.183 67.4427L100.686 67.4398L100.683 66.9398ZM108.759 49.8375L108.75 50.3375L108.75 50.3375L108.759 49.8375ZM106.744 49.9665L106.631 49.4795L106.6 49.4866L106.57 49.4976L106.744 49.9665ZM108.777 49.8379L108.768 50.3378H108.768L108.777 49.8379ZM109.592 49.8408L109.589 49.3407L109.58 49.3409L109.592 49.8408ZM113.031 50.8539L112.686 51.2159L112.694 51.2235L112.703 51.2308L113.031 50.8539ZM114.069 55.0271L113.59 54.8845L113.586 54.8989L113.583 54.9135L114.069 55.0271ZM111.186 57.6064L111.112 57.1119L111.103 57.1132L111.186 57.6064ZM107.711 57.7285L107.726 57.2288L107.726 57.2288L107.711 57.7285ZM107.584 57.7248L107.568 58.2245L107.569 58.2246L107.584 57.7248ZM107.315 57.717L107.329 57.2172L107.306 57.2165L107.283 57.218L107.315 57.717ZM105.934 56.3268L106.433 56.3678L106.435 56.3425L106.434 56.3171L105.934 56.3268ZM105.934 51.2536L106.434 51.2633L106.435 51.2481L106.434 51.2329L105.934 51.2536ZM100.183 46.1673L100.183 46.1698L101.183 46.1695L101.183 46.1669L100.183 46.1673ZM107.842 45.6739C105.456 45.6767 103.072 45.6794 100.686 45.6671L100.681 46.6671C103.07 46.6795 105.458 46.6767 107.844 46.6739L107.842 45.6739ZM107.843 45.6739L107.842 45.6739L107.844 46.6739L107.844 46.6739L107.843 45.6739ZM109.434 45.6722L107.843 45.6739L107.844 46.6739L109.435 46.6722L109.434 45.6722ZM115.967 46.7956C113.911 45.7423 111.574 45.6217 109.423 45.6723L109.446 46.672C111.569 46.6221 113.691 46.7529 115.511 47.6856L115.967 46.7956ZM120.099 52.2289C119.785 49.8256 118.103 47.7617 115.946 46.7851L115.533 47.6961C117.408 48.5446 118.843 50.332 119.108 52.3583L120.099 52.2289ZM119.245 57.6297C120.285 55.9711 120.292 53.9745 120.1 52.2389L119.106 52.3483C119.292 54.0366 119.249 55.7406 118.398 57.0987L119.245 57.6297ZM116.284 60.4862C117.355 59.7632 118.601 58.9358 119.27 57.5862L118.374 57.1423C117.842 58.2151 116.838 58.9056 115.724 59.6573L116.284 60.4862ZM115.807 60.81C115.963 60.7024 116.122 60.5953 116.284 60.4863L115.724 59.6572C115.563 59.7659 115.4 59.876 115.239 59.9871L115.807 60.81ZM116.03 60.7696C116.03 60.647 116.03 60.5081 116.022 60.3705L115.024 60.4266C115.03 60.5301 115.03 60.6395 115.03 60.7676L116.03 60.7696ZM116.03 60.7689V60.7686H115.03V60.7689H116.03ZM116.03 60.7713L116.03 60.7702L115.03 60.7675L115.03 60.7685L116.03 60.7713ZM116.198 61.6726C116.047 61.4854 116.029 61.2353 116.03 60.7708L115.03 60.769C115.029 61.1611 115.009 61.7935 115.421 62.3021L116.198 61.6726ZM117.347 63.3681C116.975 62.8138 116.601 62.2573 116.222 61.7045L115.398 62.2702C115.774 62.8183 116.145 63.3707 116.517 63.9256L117.347 63.3681ZM117.381 63.4178L117.347 63.3681L116.517 63.9256L116.551 63.9754L117.381 63.4178ZM117.413 63.4728L117.413 63.4723L116.519 63.9209L116.519 63.9214L117.413 63.4728ZM117.388 63.4282L117.38 63.4173L116.552 63.9768L116.559 63.9876L117.388 63.4282ZM117.329 63.3562L117.328 63.3557L116.618 64.0601L116.619 64.0606L117.329 63.3562ZM117.421 63.4846L117.421 63.4841L116.527 63.9327L116.527 63.9332L117.421 63.4846ZM117.396 63.4399L117.389 63.4302L116.559 63.9877L116.566 63.9974L117.396 63.4399ZM119.606 66.6491C118.847 65.6007 118.124 64.5242 117.396 63.4399L116.566 63.9975C117.292 65.0793 118.025 66.1706 118.796 67.2356L119.606 66.6491ZM116.524 67.432C117.418 67.4298 118.305 67.4275 119.193 67.4423L119.209 66.4424C118.311 66.4275 117.413 66.4298 116.521 66.432L116.524 67.432ZM116.522 67.432H116.523V66.432H116.522V67.432ZM113.739 67.4196C114.67 67.4363 115.599 67.4343 116.523 67.432L116.52 66.432C115.595 66.4343 114.676 66.4363 113.757 66.4198L113.739 67.4196ZM111.483 64.3842C112.128 65.3106 112.76 66.218 113.316 67.1716L114.18 66.6678C113.601 65.6736 112.945 64.7333 112.303 63.8124L111.483 64.3842ZM109.737 61.7514C110.283 62.663 110.889 63.5319 111.483 64.3842L112.303 63.8124C111.706 62.9553 111.12 62.1147 110.595 61.2378L109.737 61.7514ZM107.18 61.6967C108.169 61.5749 109.13 61.5865 109.965 61.9526L110.367 61.0367C109.286 60.5631 108.11 60.5747 107.058 60.7042L107.18 61.6967ZM106.507 62.5197C106.482 62.1092 106.801 61.7316 107.165 61.6984L107.074 60.7026C106.115 60.7901 105.454 61.6896 105.509 62.5813L106.507 62.5197ZM106.493 65.6147C106.483 64.5904 106.473 63.5781 106.508 62.5677L105.508 62.5333C105.473 63.5697 105.483 64.6042 105.493 65.6248L106.493 65.6147ZM106.494 65.7005L106.493 65.6149L105.493 65.6246L105.494 65.7102L106.494 65.7005ZM106.503 66.944C106.502 66.5287 106.498 66.1135 106.494 65.7005L105.494 65.7102C105.498 66.1239 105.502 66.5351 105.503 66.9457L106.503 66.944ZM100.686 67.4398C102.459 67.4298 104.229 67.4197 105.996 67.4448L106.01 66.4449C104.232 66.4197 102.452 66.4298 100.681 66.4398L100.686 67.4398ZM100.183 46.1698C100.186 53.0949 100.188 60.0172 100.183 66.9395L101.183 66.9402C101.188 60.0173 101.186 53.0945 101.183 46.1695L100.183 46.1698ZM108.767 49.3376C108.101 49.3257 107.36 49.31 106.631 49.4795L106.857 50.4535C107.446 50.3168 108.062 50.3252 108.75 50.3375L108.767 49.3376ZM108.786 49.3379L108.767 49.3376L108.75 50.3375L108.768 50.3378L108.786 49.3379ZM109.58 49.3409C109.322 49.3471 109.06 49.3426 108.786 49.3379L108.768 50.3378C109.039 50.3424 109.322 50.3473 109.604 50.3407L109.58 49.3409ZM113.376 50.4919C112.316 49.4815 110.8 49.3332 109.589 49.3408L109.595 50.3408C110.778 50.3333 111.932 50.4968 112.686 51.2159L113.376 50.4919ZM114.549 55.1697C115.016 53.6005 114.697 51.6429 113.36 50.477L112.703 51.2308C113.678 52.0811 113.973 53.5978 113.59 54.8845L114.549 55.1697ZM111.26 58.1008C112.796 57.8696 114.191 56.706 114.556 55.1406L113.583 54.9135C113.319 56.043 112.281 56.9359 111.112 57.1119L111.26 58.1008ZM107.696 58.2283C108.846 58.2628 110.068 58.3008 111.269 58.0995L111.103 57.1132C110.016 57.2956 108.893 57.2637 107.726 57.2288L107.696 58.2283ZM107.569 58.2246L107.696 58.2283L107.726 57.2288L107.599 57.225L107.569 58.2246ZM107.301 58.2168C107.39 58.2193 107.479 58.2218 107.568 58.2245L107.599 57.225C107.509 57.2222 107.418 57.2197 107.329 57.2172L107.301 58.2168ZM105.436 56.2858C105.347 57.3625 106.286 58.2822 107.346 58.216L107.283 57.218C106.815 57.2473 106.396 56.8195 106.433 56.3678L105.436 56.2858ZM105.434 51.244C105.402 52.9398 105.402 54.6381 105.434 56.3364L106.434 56.3171C106.402 54.6317 106.402 52.9462 106.434 51.2633L105.434 51.244ZM106.57 49.4976C105.814 49.7776 105.405 50.546 105.435 51.2744L106.434 51.2329C106.419 50.8702 106.628 50.5426 106.917 50.4354L106.57 49.4976Z" fill="white"/>
</g>
<g opacity="0.96">
<path fill-rule="evenodd" clip-rule="evenodd" d="M183.681 66.9423C181.909 66.9121 180.137 66.9222 178.367 66.9348C178.37 64.0508 178.369 61.1665 178.368 58.2825L178.368 58.2768C178.366 54.2418 178.364 50.2071 178.374 46.1721C180.648 46.189 182.923 46.1857 185.197 46.1822H185.199C185.304 46.182 185.408 46.1819 185.512 46.1818C186.545 46.1804 187.578 46.179 188.611 46.1797C190.972 46.1998 193.4 46.871 195.213 48.4372C196.774 49.8274 197.493 51.9617 197.37 54.0206C197.425 56.2203 196.367 58.4376 194.526 59.667C193.29 60.4714 191.892 61.0672 190.416 61.2306C189.357 61.4169 188.286 61.4043 187.214 61.3915L187.207 61.3914C186.415 61.3822 185.623 61.3729 184.835 61.4443C184.144 61.482 183.641 62.1507 183.681 62.8194C183.644 63.8489 183.657 64.8796 183.67 65.9106L183.671 66.0238C183.675 66.33 183.679 66.6361 183.681 66.9423ZM184.402 49.969C186.189 49.7754 188.125 49.6221 189.847 50.2681C192.449 51.4195 192.655 55.5499 190.3 57.0684C189.09 57.8113 187.659 57.7841 186.272 57.7577L186.271 57.7577L186.267 57.7576C185.929 57.7511 185.593 57.7446 185.264 57.7496C184.523 57.8326 183.648 57.3826 183.623 56.5656C183.573 55.431 183.581 54.2952 183.59 53.1597V53.1594V53.1592L183.59 53.0989C183.594 52.5742 183.597 52.0495 183.595 51.5251C183.55 50.9067 183.774 50.2053 184.402 49.969Z" fill="white"/>
<path d="M178.367 66.9348L177.867 66.9342L177.866 67.4383L178.37 67.4347L178.367 66.9348ZM183.681 66.9423L183.673 67.4422L184.185 67.4509L184.181 66.9386L183.681 66.9423ZM178.368 58.2825L178.868 58.2823L178.368 58.2825ZM178.368 58.2768L177.868 58.277L178.368 58.2768ZM178.374 46.1721L178.378 45.6721L177.876 45.6684L177.874 46.1708L178.374 46.1721ZM185.197 46.1822V45.6822L185.196 45.6822L185.197 46.1822ZM185.199 46.1822V46.6822L185.2 46.6822L185.199 46.1822ZM185.512 46.1818L185.511 45.6818L185.512 46.1818ZM188.611 46.1797L188.615 45.6797L188.611 45.6797L188.611 46.1797ZM195.213 48.4372L195.545 48.0637L195.54 48.0589L195.213 48.4372ZM197.37 54.0206L196.871 53.9908L196.869 54.012L196.87 54.0332L197.37 54.0206ZM194.526 59.667L194.799 60.0861L194.804 60.0827L194.526 59.667ZM190.416 61.2306L190.361 60.7337L190.345 60.7354L190.33 60.7382L190.416 61.2306ZM187.214 61.3915L187.22 60.8916L187.22 60.8916L187.214 61.3915ZM187.207 61.3914L187.201 61.8914L187.201 61.8914L187.207 61.3914ZM184.835 61.4443L184.862 61.9436L184.871 61.9431L184.88 61.9423L184.835 61.4443ZM183.681 62.8194L184.181 62.8377L184.182 62.8136L184.18 62.7894L183.681 62.8194ZM183.67 65.9106L184.17 65.9043L184.17 65.9041L183.67 65.9106ZM183.671 66.0238L183.171 66.0301V66.0301L183.671 66.0238ZM189.847 50.2681L190.05 49.8109L190.036 49.8051L190.023 49.8L189.847 50.2681ZM184.402 49.969L184.348 49.4719L184.285 49.4787L184.226 49.501L184.402 49.969ZM190.3 57.0684L190.562 57.4945L190.571 57.4886L190.3 57.0684ZM186.272 57.7577L186.262 58.2576L186.263 58.2576L186.272 57.7577ZM186.271 57.7577L186.282 57.2578L186.281 57.2578L186.271 57.7577ZM186.267 57.7576L186.277 57.2577L186.277 57.2577L186.267 57.7576ZM185.264 57.7496L185.257 57.2497L185.233 57.2501L185.209 57.2527L185.264 57.7496ZM183.623 56.5656L184.123 56.5502L184.122 56.5439L183.623 56.5656ZM183.59 53.1597L184.09 53.1633V53.1597H183.59ZM183.59 53.1592L183.09 53.1557V53.1592H183.59ZM183.59 53.0989L184.09 53.1023V53.1023L183.59 53.0989ZM183.595 51.5251L184.095 51.5228L184.095 51.5057L184.094 51.4886L183.595 51.5251ZM178.37 67.4347C180.14 67.4222 181.907 67.4122 183.673 67.4422L183.69 66.4424C181.911 66.4121 180.133 66.4222 178.363 66.4348L178.37 67.4347ZM177.868 58.2827C177.869 61.1668 177.87 64.0507 177.867 66.9342L178.867 66.9353C178.87 64.0509 178.869 61.1663 178.868 58.2823L177.868 58.2827ZM177.868 58.277L177.868 58.2827L178.868 58.2823L178.868 58.2765L177.868 58.277ZM177.874 46.1708C177.864 50.2067 177.866 54.2421 177.868 58.277L178.868 58.2765C178.866 54.2415 178.864 50.2075 178.874 46.1734L177.874 46.1708ZM185.196 45.6822C182.921 45.6857 180.649 45.689 178.378 45.6721L178.371 46.6721C180.647 46.689 182.924 46.6857 185.198 46.6822L185.196 45.6822ZM185.199 45.6822H185.197V46.6822H185.199V45.6822ZM185.511 45.6818C185.407 45.6819 185.303 45.682 185.199 45.6822L185.2 46.6822C185.304 46.682 185.409 46.6819 185.513 46.6818L185.511 45.6818ZM188.611 45.6797C187.578 45.679 186.544 45.6804 185.511 45.6818L185.513 46.6818C186.546 46.6804 187.579 46.679 188.611 46.6797L188.611 45.6797ZM195.54 48.0589C193.614 46.3947 191.059 45.7005 188.615 45.6797L188.607 46.6796C190.884 46.699 193.187 47.3472 194.886 48.8155L195.54 48.0589ZM197.869 54.0505C198 51.8656 197.239 49.5725 195.545 48.0638L194.88 48.8106C196.308 50.0823 196.986 52.0578 196.871 53.9908L197.869 54.0505ZM194.804 60.0827C196.798 58.7508 197.929 56.3654 197.87 54.0081L196.87 54.0332C196.921 56.0752 195.935 58.1245 194.249 59.2512L194.804 60.0827ZM190.471 61.7276C192.044 61.5535 193.515 60.9211 194.799 60.0861L194.254 59.2478C193.064 60.0217 191.74 60.581 190.361 60.7337L190.471 61.7276ZM187.208 61.8915C188.272 61.9042 189.39 61.9188 190.503 61.7231L190.33 60.7382C189.324 60.9151 188.299 60.9045 187.22 60.8916L187.208 61.8915ZM187.201 61.8914L187.209 61.8915L187.22 60.8916L187.213 60.8915L187.201 61.8914ZM184.88 61.9423C185.638 61.8735 186.405 61.8821 187.201 61.8914L187.213 60.8915C186.425 60.8822 185.607 60.8722 184.79 60.9464L184.88 61.9423ZM184.18 62.7894C184.154 62.3521 184.491 61.9638 184.862 61.9436L184.808 60.9451C183.797 61.0002 183.128 61.9493 183.182 62.8495L184.18 62.7894ZM184.17 65.9041C184.157 64.8712 184.144 63.8528 184.181 62.8377L183.182 62.8011C183.143 63.845 183.157 64.888 183.17 65.917L184.17 65.9041ZM184.171 66.0176L184.17 65.9043L183.17 65.9168L183.171 66.0301L184.171 66.0176ZM184.181 66.9386C184.179 66.631 184.175 66.3235 184.171 66.0176L183.171 66.0301C183.175 66.3365 183.179 66.6413 183.181 66.946L184.181 66.9386ZM190.023 49.8C188.175 49.1067 186.125 49.2794 184.348 49.4719L184.456 50.4661C186.254 50.2714 188.075 50.1374 189.672 50.7363L190.023 49.8ZM190.571 57.4886C191.935 56.6093 192.522 55.0021 192.432 53.5005C192.341 51.9972 191.563 50.4805 190.05 49.8109L189.645 50.7254C190.734 51.2072 191.359 52.3314 191.433 53.5607C191.508 54.7918 191.02 56.009 190.029 56.6481L190.571 57.4886ZM186.263 58.2576C187.62 58.2834 189.206 58.327 190.561 57.4944L190.038 56.6423C188.974 57.2957 187.698 57.2847 186.282 57.2578L186.263 58.2576ZM186.261 58.2576L186.262 58.2576L186.283 57.2578L186.282 57.2578L186.261 58.2576ZM186.257 58.2575L186.262 58.2576L186.281 57.2578L186.277 57.2577L186.257 58.2575ZM185.272 58.2496C185.591 58.2447 185.918 58.251 186.258 58.2575L186.277 57.2577C185.94 57.2512 185.596 57.2445 185.257 57.2497L185.272 58.2496ZM183.123 56.5809C183.142 57.1854 183.48 57.64 183.903 57.9144C184.317 58.1834 184.837 58.3005 185.32 58.2465L185.209 57.2527C184.95 57.2817 184.662 57.2153 184.447 57.0758C184.241 56.9416 184.129 56.7627 184.122 56.5502L183.123 56.5809ZM183.09 53.156C183.082 54.2896 183.073 55.438 183.123 56.5873L184.122 56.5439C184.074 55.4241 184.081 54.3009 184.09 53.1633L183.09 53.156ZM183.09 53.1594V53.1597H184.09V53.1594H183.09ZM183.09 53.1592V53.1594H184.09V53.1592H183.09ZM183.09 53.0954L183.09 53.1557L184.09 53.1626L184.09 53.1023L183.09 53.0954ZM183.095 51.5274C183.097 52.0485 183.094 52.5702 183.09 53.0954L184.09 53.1023C184.094 52.5781 184.097 52.0506 184.095 51.5228L183.095 51.5274ZM184.226 49.501C183.291 49.8525 183.044 50.8495 183.096 51.5616L184.094 51.4886C184.055 50.9639 184.256 50.5581 184.578 50.437L184.226 49.501Z" fill="white"/>
</g>
<g opacity="0.96">
<path fill-rule="evenodd" clip-rule="evenodd" d="M129.066 1.08234C123.299 1.44686 117.537 4.47364 114.611 9.56688C112.426 13.1769 111.921 17.5989 112.622 21.7092C113.469 26.3777 116.463 30.6037 120.601 32.9291C124.342 35.1363 128.809 35.8754 133.098 35.4857C137.633 35.1413 142.146 33.2307 145.241 29.8445C147.913 27.064 149.502 23.2578 149.605 19.4014C149.691 17.2269 149.585 15.0045 148.883 12.9255C147.539 8.58644 144.25 4.9186 140.147 2.99796C136.744 1.28345 132.832 0.780663 129.066 1.08234ZM136.627 10.4148C134.646 8.76066 131.923 8.02407 129.382 8.49166C126.393 8.92406 123.864 11.1338 122.722 13.8841C121.772 16.2296 121.561 18.8717 122.169 21.3329C122.765 24.1083 124.643 26.6247 127.24 27.8214C130.883 29.4756 135.606 28.3845 137.959 25.0937C139.855 22.5999 140.272 19.2815 139.815 16.2547C139.428 14.0299 138.359 11.8905 136.627 10.4148Z" fill="white"/>
<path d="M114.611 9.56688L115.039 9.82582L115.044 9.81596L114.611 9.56688ZM129.066 1.08234L129.097 1.58141L129.106 1.58074L129.066 1.08234ZM112.622 21.7092L112.129 21.7933L112.13 21.7985L112.622 21.7092ZM120.601 32.9291L120.856 32.4983L120.846 32.4932L120.601 32.9291ZM133.098 35.4857L133.06 34.9871L133.053 34.9878L133.098 35.4857ZM145.241 29.8445L144.88 29.4979L144.871 29.5072L145.241 29.8445ZM149.605 19.4014L149.105 19.3817L149.105 19.3881L149.605 19.4014ZM148.883 12.9255L148.406 13.0736L148.41 13.0853L148.883 12.9255ZM140.147 2.99796L139.922 3.4445L139.929 3.44774L139.935 3.45079L140.147 2.99796ZM129.382 8.49166L129.453 8.98651L129.463 8.98514L129.472 8.98341L129.382 8.49166ZM136.627 10.4148L136.951 10.0342L136.948 10.031L136.627 10.4148ZM122.722 13.8841L122.261 13.6924L122.259 13.6963L122.722 13.8841ZM122.169 21.3329L122.658 21.2279L122.657 21.2204L122.655 21.2129L122.169 21.3329ZM127.24 27.8214L127.031 28.2755L127.033 28.2766L127.24 27.8214ZM137.959 25.0937L137.561 24.7912L137.557 24.797L137.553 24.8029L137.959 25.0937ZM139.815 16.2547L140.309 16.18L140.307 16.169L139.815 16.2547ZM115.044 9.81596C117.873 4.89262 123.468 1.93719 129.097 1.58134L129.034 0.583332C123.13 0.956528 117.201 4.05465 114.177 9.3178L115.044 9.81596ZM113.115 21.6251C112.429 17.6051 112.929 13.3109 115.038 9.82575L114.183 9.30801C111.923 13.0429 111.413 17.5927 112.129 21.7933L113.115 21.6251ZM120.846 32.4932C116.839 30.2413 113.935 26.143 113.114 21.6199L112.13 21.7985C113.004 26.6125 116.088 30.966 120.356 33.3649L120.846 32.4932ZM133.053 34.9878C128.847 35.3699 124.489 34.6424 120.856 32.4984L120.347 33.3597C124.195 35.6301 128.772 36.3809 133.143 35.9837L133.053 34.9878ZM144.871 29.5072C141.875 32.7855 137.489 34.6509 133.06 34.9872L133.136 35.9843C137.778 35.6318 142.416 33.676 145.61 30.1818L144.871 29.5072ZM149.105 19.3881C149.005 23.1202 147.466 26.8076 144.88 29.498L145.601 30.1909C148.36 27.3205 149.998 23.3954 150.105 19.4147L149.105 19.3881ZM148.41 13.0853C149.082 15.0797 149.19 17.2312 149.105 19.3817L150.104 19.4211C150.191 17.2225 150.087 14.9294 149.357 12.7657L148.41 13.0853ZM139.935 3.45079C143.916 5.31406 147.104 8.87404 148.406 13.0735L149.361 12.7775C147.973 8.29885 144.585 4.52314 140.359 2.54512L139.935 3.45079ZM129.106 1.58074C132.805 1.28443 136.62 1.78102 139.922 3.4445L140.372 2.55141C136.867 0.785879 132.859 0.276898 129.026 0.583932L129.106 1.58074ZM129.472 8.98341C131.865 8.54323 134.438 9.23791 136.307 10.7986L136.948 10.031C134.855 8.2834 131.982 7.50491 129.291 7.99992L129.472 8.98341ZM123.184 14.0757C124.267 11.4659 126.661 9.3904 129.453 8.98651L129.31 7.99681C126.124 8.45772 123.46 10.8017 122.261 13.6924L123.184 14.0757ZM122.655 21.2129C122.072 18.857 122.274 16.3224 123.186 14.0718L122.259 13.6963C121.27 16.1367 121.05 18.8865 121.684 21.4529L122.655 21.2129ZM127.449 27.3673C125.007 26.242 123.224 23.8628 122.658 21.2279L121.681 21.4378C122.307 24.3537 124.279 27.0074 127.031 28.2755L127.449 27.3673ZM137.553 24.8029C135.348 27.8858 130.887 28.9286 127.447 27.3661L127.033 28.2766C130.878 30.0226 135.865 28.8832 138.366 25.3846L137.553 24.8029ZM139.32 16.3294C139.765 19.2728 139.349 22.4395 137.561 24.7912L138.358 25.3963C140.361 22.7603 140.779 19.2902 140.309 16.18L139.32 16.3294ZM136.303 10.7954C137.931 12.1828 138.951 14.2097 139.322 16.3404L140.307 16.169C139.904 13.8501 138.787 11.5982 136.951 10.0342L136.303 10.7954Z" fill="white"/>
</g>
<g opacity="0.96">
<path fill-rule="evenodd" clip-rule="evenodd" d="M74.7925 2.26147C74.7931 4.46351 74.7938 6.66554 74.7946 8.86758L74.7946 8.88058C74.7973 17.6978 74.8001 26.5151 74.79 35.3325C77.8055 35.3254 80.8216 35.327 83.8376 35.3285H83.8415H83.8442C87.4264 35.3302 91.0085 35.332 94.5898 35.3199C97.4683 35.1666 100.45 34.8599 103.017 33.4294C104.97 32.4817 106.534 30.6716 106.943 28.5097C107.192 26.5965 107.124 24.5073 106.031 22.8456C104.95 21.0859 103.137 19.9521 101.249 19.2281C100.676 19.0186 100.688 18.4388 100.698 17.9076V17.9076V17.9068C100.701 17.7561 100.704 17.6091 100.694 17.4758C100.956 17.2963 101.227 17.1255 101.498 16.9546C102.252 16.4792 103.009 16.002 103.602 15.3289C106.177 12.5485 106.036 7.58097 103.037 5.1525C100.369 2.87236 96.7267 2.40226 93.3479 2.2665C90.8732 2.26449 88.399 2.2657 85.925 2.2669H85.9248L85.9246 2.2669C82.2136 2.26871 78.5031 2.27052 74.7925 2.26147ZM84.0356 9.10506C84.7002 8.26254 85.7144 8.30794 86.7016 8.35214H86.7016C87.0548 8.36795 87.4045 8.38359 87.7336 8.35842C88.262 8.38004 88.802 8.36906 89.3448 8.35799C90.9494 8.32534 92.5779 8.2922 94.0058 9.10003C96.2835 10.3193 96.3488 14.0977 94.1592 15.4327C92.8519 16.2673 91.243 16.2974 89.7447 16.2798C89.1255 16.2676 88.5058 16.2728 87.8867 16.2781H87.8864C86.9872 16.2857 86.0882 16.2933 85.192 16.2472C84.8219 16.2434 84.559 15.9934 84.3038 15.7506L84.3028 15.7497C84.2134 15.6646 84.125 15.5804 84.033 15.5081C83.9048 13.3788 83.8973 11.2369 84.0356 9.10506ZM84.2076 22.2778C84.1507 22.3276 84.0944 22.3769 84.0381 22.4239C83.9023 24.3395 83.9174 26.2652 83.9853 28.1809C83.9375 28.9602 84.649 29.6515 85.4258 29.5887C86.7226 29.608 88.0191 29.6045 89.3159 29.601H89.3163C90.2141 29.5985 91.1121 29.596 92.0098 29.6012C93.4352 29.6012 94.9813 29.4328 96.1553 28.5504C97.8974 27.0722 97.8396 23.9951 96.012 22.6099C94.838 21.8432 93.3849 21.6622 92.0123 21.6798C91.0523 21.6875 90.0924 21.6846 89.1325 21.6816L89.1253 21.6816C87.9005 21.6778 86.6757 21.674 85.4509 21.6923C84.9429 21.6323 84.5721 21.9578 84.2199 22.267L84.2198 22.267L84.2076 22.2778Z" fill="white"/>
<path d="M74.7946 8.86758L75.2946 8.86742V8.86741L74.7946 8.86758ZM74.7925 2.26147L74.7938 1.76148L74.2924 1.76025L74.2925 2.26159L74.7925 2.26147ZM74.7946 8.88058L75.2946 8.88042L74.7946 8.88058ZM74.79 35.3325L74.29 35.3319L74.2895 35.8337L74.7912 35.8325L74.79 35.3325ZM83.8376 35.3285L83.8373 35.8285H83.8376V35.3285ZM83.8442 35.3285L83.8445 34.8285H83.8442V35.3285ZM94.5898 35.3199L94.5915 35.8199L94.604 35.8199L94.6164 35.8192L94.5898 35.3199ZM103.017 33.4294L102.798 32.9796L102.786 32.9858L102.773 32.9927L103.017 33.4294ZM106.943 28.5097L107.435 28.6028L107.437 28.5885L107.439 28.5742L106.943 28.5097ZM106.031 22.8456L105.605 23.1073L105.609 23.114L105.613 23.1205L106.031 22.8456ZM101.249 19.2281L101.428 18.7611L101.421 18.7584L101.249 19.2281ZM100.698 17.9076L101.198 17.9178V17.9076H100.698ZM100.698 17.9068L100.198 17.8967V17.9068H100.698ZM100.694 17.4758L100.412 17.063L100.172 17.2265L100.195 17.5153L100.694 17.4758ZM101.498 16.9546L101.765 17.3776L101.765 17.3775L101.498 16.9546ZM103.602 15.3289L103.235 14.9891L103.227 14.9983L103.602 15.3289ZM103.037 5.1525L102.712 5.53269L102.722 5.54109L103.037 5.1525ZM93.3479 2.2665L93.368 1.76691L93.3582 1.76651L93.3484 1.7665L93.3479 2.2665ZM85.925 2.2669V2.7669L85.9253 2.7669L85.925 2.2669ZM85.9248 2.2669V1.7669L85.9245 1.7669L85.9248 2.2669ZM85.9246 2.2669L85.9248 2.7669H85.9248L85.9246 2.2669ZM86.7016 8.35214L86.6792 8.85164L86.6904 8.85214H86.7016V8.35214ZM84.0356 9.10506L83.643 8.79537L83.5467 8.91749L83.5366 9.0727L84.0356 9.10506ZM86.7016 8.35214L86.724 7.85264L86.7128 7.85214H86.7016V8.35214ZM87.7336 8.35842L87.754 7.85884L87.7247 7.85764L87.6954 7.85988L87.7336 8.35842ZM89.3448 8.35799L89.3346 7.8581H89.3346L89.3448 8.35799ZM94.0058 9.10003L93.7596 9.53534L93.7699 9.54085L94.0058 9.10003ZM94.1592 15.4327L93.8989 15.0056L93.8901 15.0112L94.1592 15.4327ZM89.7447 16.2798L89.7348 16.7798L89.7388 16.7798L89.7447 16.2798ZM87.8867 16.2781V16.7781L87.8909 16.778L87.8867 16.2781ZM87.8864 16.2781V15.778L87.8822 15.7781L87.8864 16.2781ZM85.192 16.2472L85.2177 15.7478L85.2073 15.7473L85.197 15.7472L85.192 16.2472ZM84.3038 15.7506L83.959 16.1127L83.9591 16.1128L84.3038 15.7506ZM84.3028 15.7497L84.6476 15.3875L84.6475 15.3874L84.3028 15.7497ZM84.033 15.5081L83.5339 15.5381L83.5474 15.7622L83.7238 15.901L84.033 15.5081ZM84.0381 22.4239L83.7175 22.0402L83.5544 22.1765L83.5393 22.3886L84.0381 22.4239ZM84.2076 22.2778L83.8782 21.9016L83.8782 21.9016L84.2076 22.2778ZM83.9853 28.1809L84.4843 28.2114L84.4858 28.1873L84.485 28.1632L83.9853 28.1809ZM85.4258 29.5887L85.4332 29.0887L85.4093 29.0884L85.3854 29.0903L85.4258 29.5887ZM89.3159 29.601V29.101L89.3146 29.101L89.3159 29.601ZM89.3163 29.601V30.101L89.3177 30.101L89.3163 29.601ZM92.0098 29.6012L92.0068 30.1012H92.0098V29.6012ZM96.1553 28.5504L96.4557 28.9501L96.4675 28.9412L96.4788 28.9317L96.1553 28.5504ZM96.012 22.6099L96.314 22.2115L96.3 22.2009L96.2854 22.1913L96.012 22.6099ZM92.0123 21.6798L92.0163 22.1798L92.0187 22.1797L92.0123 21.6798ZM89.1325 21.6816L89.1309 22.1816H89.1309L89.1325 21.6816ZM89.1253 21.6816L89.1269 21.1816H89.1268L89.1253 21.6816ZM85.4509 21.6923L85.3923 22.1889L85.4252 22.1928L85.4584 22.1923L85.4509 21.6923ZM84.2199 22.267L84.5429 22.6487L84.5498 22.6427L84.2199 22.267ZM84.2198 22.267L83.8968 21.8853L83.8905 21.8908L84.2198 22.267ZM75.2946 8.86741C75.2938 6.66537 75.2931 4.46336 75.2925 2.26136L74.2925 2.26159C74.2931 4.46365 74.2938 6.66572 74.2946 8.86775L75.2946 8.86741ZM75.2946 8.88042L75.2946 8.86742L74.2946 8.86773L74.2946 8.88074L75.2946 8.88042ZM75.29 35.3331C75.3001 26.5153 75.2973 17.6976 75.2946 8.88042L74.2946 8.88074C74.2973 17.6981 74.3001 26.515 74.29 35.3319L75.29 35.3331ZM83.8378 34.8285C80.822 34.827 77.8051 34.8254 74.7889 34.8325L74.7912 35.8325C77.8058 35.8254 80.8213 35.827 83.8373 35.8285L83.8378 34.8285ZM83.8415 34.8285H83.8376V35.8285H83.8415V34.8285ZM83.8442 34.8285H83.8415V35.8285H83.8442V34.8285ZM94.5881 34.8199C91.0079 34.832 87.4268 34.8302 83.8445 34.8285L83.844 35.8285C87.426 35.8302 91.009 35.832 94.5915 35.8199L94.5881 34.8199ZM102.773 32.9927C100.316 34.3618 97.4395 34.6674 94.5632 34.8206L94.6164 35.8192C97.4971 35.6657 100.583 35.3579 103.26 33.8662L102.773 32.9927ZM106.452 28.4165C106.076 30.401 104.631 32.0904 102.798 32.9796L103.235 33.8793C105.309 32.8729 106.991 30.9423 107.435 28.6028L106.452 28.4165ZM105.613 23.1205C106.607 24.6305 106.691 26.5705 106.448 28.4451L107.439 28.5742C107.693 26.6226 107.642 24.3841 106.448 22.5707L105.613 23.1205ZM101.07 19.6949C102.905 20.3986 104.604 21.4782 105.605 23.1073L106.457 22.5839C105.296 20.6935 103.369 19.5055 101.428 18.7612L101.07 19.6949ZM100.199 17.8974C100.194 18.1441 100.182 18.5017 100.274 18.8249C100.377 19.1889 100.615 19.5288 101.078 19.6977L101.421 18.7584C101.31 18.7179 101.267 18.6632 101.236 18.5521C101.193 18.4002 101.193 18.2023 101.198 17.9178L100.199 17.8974ZM100.198 17.9076V17.9076H101.198V17.9076H100.198ZM100.198 17.9068V17.9076H101.198V17.9068H100.198ZM100.195 17.5153C100.203 17.6194 100.202 17.7406 100.199 17.8967L101.198 17.9168C101.201 17.7715 101.205 17.5988 101.192 17.4364L100.195 17.5153ZM101.232 16.5316C100.962 16.7018 100.683 16.8774 100.412 17.063L100.976 17.8886C101.23 17.7152 101.493 17.5493 101.765 17.3776L101.232 16.5316ZM103.227 14.9983C102.689 15.6084 101.996 16.0496 101.232 16.5316L101.765 17.3775C102.509 16.9087 103.329 16.3955 103.977 15.6596L103.227 14.9983ZM102.722 5.54109C104.092 6.6505 104.827 8.3559 104.91 10.132C104.993 11.9095 104.42 13.7101 103.235 14.9892L103.969 15.6686C105.359 14.1674 106.003 12.094 105.909 10.0854C105.815 8.07558 104.98 6.08296 103.351 4.76392L102.722 5.54109ZM93.3279 2.7661C96.7003 2.9016 100.185 3.37279 102.712 5.53256L103.362 4.77244C100.553 2.37193 96.7531 1.90291 93.368 1.76691L93.3279 2.7661ZM85.9253 2.7669C88.3993 2.7657 90.8732 2.76449 93.3475 2.7665L93.3484 1.7665C90.8732 1.76449 88.3987 1.7657 85.9248 1.7669L85.9253 2.7669ZM85.9248 2.7669H85.925V1.7669H85.9248V2.7669ZM85.9248 2.7669L85.925 2.7669L85.9245 1.7669L85.9244 1.7669L85.9248 2.7669ZM74.7913 2.76147C78.5027 2.77053 82.2139 2.76871 85.9248 2.7669L85.9244 1.7669C82.2132 1.76871 78.5034 1.77052 74.7938 1.76148L74.7913 2.76147ZM86.7239 7.85264C85.7947 7.81104 84.4915 7.71982 83.643 8.79537L84.4281 9.41475C84.9089 8.80526 85.634 8.80484 86.6792 8.85164L86.7239 7.85264ZM86.7016 7.85214H86.7016V8.85214H86.7016V7.85214ZM87.6954 7.85988C87.4021 7.88231 87.0836 7.86874 86.724 7.85264L86.6792 8.85164C87.026 8.86716 87.4069 8.88486 87.7717 8.85697L87.6954 7.85988ZM89.3346 7.8581C88.789 7.86922 88.2645 7.87972 87.754 7.85884L87.7131 8.858C88.2595 8.88036 88.815 8.86889 89.3549 8.85789L89.3346 7.8581ZM94.252 8.66485C92.685 7.77832 90.913 7.82598 89.3346 7.8581L89.3549 8.85789C90.9858 8.8247 92.4708 8.80609 93.7596 9.53522L94.252 8.66485ZM94.4195 15.8596C95.7025 15.0774 96.2878 13.6076 96.2576 12.2122C96.2274 10.816 95.5782 9.3746 94.2418 8.65922L93.7699 9.54085C94.7111 10.0447 95.2334 11.1021 95.2579 12.2338C95.2824 13.3661 94.8055 14.453 93.8989 15.0057L94.4195 15.8596ZM89.7388 16.7798C91.2211 16.7972 92.9784 16.7798 94.4283 15.8541L93.8901 15.0112C92.7255 15.7548 91.265 15.7977 89.7506 15.7799L89.7388 16.7798ZM87.8909 16.778C88.5113 16.7728 89.1239 16.7676 89.7348 16.7798L89.7546 15.7799C89.1272 15.7675 88.5004 15.7728 87.8824 15.7781L87.8909 16.778ZM87.8864 16.7781H87.8867V15.7781H87.8864V16.7781ZM85.1663 16.7465C86.0799 16.7936 86.9939 16.7857 87.8907 16.778L87.8822 15.7781C86.9804 15.7857 86.0964 15.7931 85.2177 15.7478L85.1663 16.7465ZM83.9591 16.1128C84.1842 16.327 84.5877 16.7411 85.1869 16.7471L85.197 15.7472C85.0561 15.7458 84.9337 15.6598 84.6485 15.3884L83.9591 16.1128ZM83.9581 16.1118L83.959 16.1127L84.6485 15.3884L84.6476 15.3875L83.9581 16.1118ZM83.7238 15.901C83.794 15.9562 83.8653 16.0235 83.9582 16.1119L84.6475 15.3874C84.5615 15.3056 84.4559 15.2046 84.3422 15.1151L83.7238 15.901ZM83.5366 9.0727C83.3969 11.2272 83.4046 13.39 83.5339 15.5381L84.5321 15.478C84.4051 13.3675 84.3977 11.2466 84.5345 9.13742L83.5366 9.0727ZM84.3586 22.8076C84.4201 22.7562 84.4808 22.7031 84.5369 22.654L83.8782 21.9016C83.8205 21.9521 83.7686 21.9975 83.7175 22.0402L84.3586 22.8076ZM84.485 28.1632C84.4174 26.2557 84.4029 24.3497 84.5368 22.4592L83.5393 22.3886C83.4018 24.3293 83.4174 26.2748 83.4856 28.1986L84.485 28.1632ZM85.3854 29.0903C84.9092 29.1288 84.4554 28.6844 84.4843 28.2114L83.4862 28.1503C83.4197 29.236 84.3887 30.1742 85.4661 30.087L85.3854 29.0903ZM89.3146 29.101C88.017 29.1045 86.7249 29.108 85.4332 29.0887L85.4183 30.0886C86.7202 30.108 88.0212 30.1045 89.3173 30.101L89.3146 29.101ZM89.3163 29.101H89.3159V30.101H89.3163V29.101ZM92.0127 29.1012C91.1125 29.0959 90.2123 29.0985 89.3149 29.101L89.3177 30.101C90.2158 30.0985 91.1116 30.096 92.0068 30.1012L92.0127 29.1012ZM95.8549 28.1507C94.8194 28.9289 93.4178 29.1012 92.0098 29.1012V30.1012C93.4525 30.1012 95.1431 29.9367 96.4557 28.9501L95.8549 28.1507ZM95.71 23.0084C96.481 23.5928 96.9 24.553 96.9224 25.5564C96.9448 26.5602 96.5686 27.5439 95.8318 28.1691L96.4788 28.9317C97.4841 28.0787 97.9501 26.7848 97.9222 25.5341C97.8943 24.2832 97.3706 23.0123 96.314 22.2115L95.71 23.0084ZM92.0187 22.1797C93.3567 22.1626 94.689 22.3431 95.7386 23.0286L96.2854 22.1913C94.987 21.3433 93.4132 21.1618 92.0059 21.1798L92.0187 22.1797ZM89.1309 22.1816C90.0904 22.1846 91.0531 22.1875 92.0163 22.1798L92.0083 21.1798C91.0516 21.1875 90.0944 21.1846 89.134 21.1816L89.1309 22.1816ZM89.1237 22.1816L89.1309 22.1816L89.1341 21.1816L89.1269 21.1816L89.1237 22.1816ZM85.4584 22.1923C86.6779 22.1741 87.8982 22.1778 89.1237 22.1816L89.1268 21.1816C87.9028 21.1778 86.6735 21.174 85.4434 21.1924L85.4584 22.1923ZM84.5498 22.6427C84.9372 22.3026 85.1405 22.1592 85.3923 22.1889L85.5096 21.1958C84.7452 21.1055 84.2069 21.613 83.8901 21.8912L84.5498 22.6427ZM84.5428 22.6487L84.5429 22.6487L83.8969 21.8853L83.8969 21.8853L84.5428 22.6487ZM84.5369 22.654L84.5492 22.6433L83.8905 21.8908L83.8782 21.9016L84.5369 22.654Z" fill="white"/>
</g>
<g opacity="0.96">
<path fill-rule="evenodd" clip-rule="evenodd" d="M1.07656 12.2936L1.07656 12.2992C1.0791 17.6951 1.08164 23.091 1.06623 28.487C0.845001 31.363 1.19947 34.2515 1.81035 37.0596C1.90158 37.3605 1.99078 37.6622 2.08005 37.9642L2.08269 37.9731C2.36753 38.937 2.69392 39.8943 3.06731 40.828C6.18209 48.3647 12.6882 54.4611 20.494 56.8946C24.3554 58.1339 28.5008 58.4985 32.5231 57.9755C38.0965 57.3194 43.431 54.853 47.5841 51.0798C47.5873 52.9398 47.5861 54.7998 47.5848 56.66V56.6603V56.6668C47.5831 59.2745 47.5816 61.8827 47.5916 64.4917C50.8371 63.6973 53.879 61.6233 55.3974 58.5915C55.8215 57.8064 56.0955 56.9595 56.3695 56.1125L56.3695 56.1125L56.3746 56.0968C56.5263 55.6284 56.678 55.1599 56.8555 54.7024C56.8992 49.5004 56.8927 44.2977 56.8862 39.0952V39.0941V39.0923V39.0892C56.8821 35.8885 56.8781 32.6878 56.8857 29.4876C56.9007 27.4387 56.5915 25.4073 56.1566 23.4087L56.1166 23.2771L56.115 23.2717C55.8071 22.2613 55.4988 21.2498 55.1284 20.2613C52.0991 12.267 45.2109 5.84635 37.0079 3.42039C32.2038 1.96231 27.0301 1.9246 22.1532 3.0609C22.0932 3.07905 22.0333 3.09719 21.9735 3.11533C20.7673 3.48055 19.5641 3.84488 18.3923 4.31536C15.4837 5.55221 12.7259 7.20387 10.4181 9.3734C10.3635 7.82245 10.3704 6.27048 10.3773 4.71812L10.3773 4.7161V4.71555L10.3774 4.70986C10.3812 3.83187 10.3851 2.95355 10.3779 2.07544H1.07628C1.07337 5.4815 1.07496 8.88759 1.07656 12.2936ZM37.2442 14.7027C33.9208 12.8902 30.0041 12.1913 26.2583 12.7544C22.6358 13.2924 19.1816 14.9792 16.5898 17.5787C13.3996 20.6205 11.5015 24.937 11.3256 29.3338C11.1446 33.2228 12.3035 37.1697 14.5912 40.3247C16.8135 43.354 19.966 45.7397 23.5835 46.8258C28.1111 48.2839 33.2194 47.7459 37.3674 45.4305C41.2263 43.2484 44.2858 39.6007 45.5729 35.3396C46.6489 31.9458 46.6413 28.2251 45.5629 24.8339C44.2581 20.5376 41.1559 16.8672 37.2442 14.7027Z" fill="white"/>
<path d="M1.07656 12.2992L0.576565 12.2995V12.2995L1.07656 12.2992ZM1.07656 12.2936L1.57656 12.2934V12.2934L1.07656 12.2936ZM1.06623 28.487L1.56475 28.5254L1.56617 28.5069L1.56623 28.4885L1.06623 28.487ZM1.81035 37.0596L1.32178 37.1658L1.32604 37.1854L1.33185 37.2046L1.81035 37.0596ZM2.08005 37.9642L2.55954 37.8225L2.55953 37.8224L2.08005 37.9642ZM2.08269 37.9731L2.56219 37.8314L2.56218 37.8314L2.08269 37.9731ZM3.06731 40.828L2.60303 41.0136L2.60522 41.0189L3.06731 40.828ZM20.494 56.8946L20.6468 56.4185L20.6428 56.4172L20.494 56.8946ZM32.5231 57.9755L32.4646 57.4789L32.4586 57.4797L32.5231 57.9755ZM47.5841 51.0798L48.0841 51.0789L48.0821 49.9518L47.2479 50.7097L47.5841 51.0798ZM47.5848 56.66L47.0848 56.6597V56.66H47.5848ZM47.5848 56.6668L48.0848 56.6671V56.6668H47.5848ZM47.5916 64.4917L47.0916 64.4936L47.0941 65.1282L47.7105 64.9773L47.5916 64.4917ZM55.3974 58.5915L54.9575 58.3538L54.9538 58.3606L54.9503 58.3676L55.3974 58.5915ZM56.3695 56.1125L55.9053 55.9268L55.899 55.9425L55.8938 55.9586L56.3695 56.1125ZM56.3695 56.1125L56.8338 56.2982L56.8401 56.2824L56.8453 56.2663L56.3695 56.1125ZM56.3746 56.0968L55.8989 55.9428L55.8989 55.943L56.3746 56.0968ZM56.8555 54.7024L57.3216 54.8833L57.3547 54.798L57.3555 54.7066L56.8555 54.7024ZM56.8862 39.0952H56.3862V39.0958L56.8862 39.0952ZM56.8862 39.0892H57.3862V39.0885L56.8862 39.0892ZM56.8857 29.4876L56.3857 29.4839L56.3857 29.4864L56.8857 29.4876ZM56.1566 23.4087L56.6452 23.3024L56.6409 23.2827L56.6351 23.2635L56.1566 23.4087ZM56.1166 23.2771L56.5951 23.1318L56.5948 23.131L56.1166 23.2771ZM56.115 23.2717L55.6367 23.4174L55.6368 23.4178L56.115 23.2717ZM55.1284 20.2613L55.5966 20.0858L55.596 20.0841L55.1284 20.2613ZM37.0079 3.42039L36.8627 3.89885L36.8661 3.89986L37.0079 3.42039ZM22.1532 3.0609L22.0397 2.57394L22.0238 2.57765L22.0082 2.58239L22.1532 3.0609ZM21.9735 3.11533L22.1184 3.59387V3.59387L21.9735 3.11533ZM18.3923 4.31536L18.206 3.85126L18.1966 3.85523L18.3923 4.31536ZM10.4181 9.3734L9.91839 9.39097L9.95713 10.493L10.7605 9.7377L10.4181 9.3734ZM10.3773 4.71812L10.8773 4.72034V4.72025L10.3773 4.71812ZM10.3773 4.7161L10.8773 4.71823V4.7161H10.3773ZM10.3773 4.71555L9.87733 4.71329V4.71555H10.3773ZM10.3774 4.70986L10.8773 4.71212V4.71207L10.3774 4.70986ZM10.3779 2.07544L10.8778 2.0713L10.8737 1.57544H10.3779V2.07544ZM1.07628 2.07544V1.57544H0.576711L0.576283 2.07501L1.07628 2.07544ZM26.2583 12.7544L26.3318 13.249L26.3327 13.2488L26.2583 12.7544ZM37.2442 14.7027L37.4863 14.2652L37.4836 14.2637L37.2442 14.7027ZM16.5898 17.5787L16.9349 17.9406L16.9438 17.9317L16.5898 17.5787ZM11.3256 29.3338L11.825 29.357L11.8252 29.3538L11.3256 29.3338ZM14.5912 40.3247L14.1864 40.6182L14.188 40.6205L14.5912 40.3247ZM23.5835 46.8258L23.7368 46.3497L23.7273 46.3469L23.5835 46.8258ZM37.3674 45.4305L37.6111 45.8671L37.6135 45.8658L37.3674 45.4305ZM45.5729 35.3396L45.0963 35.1885L45.0943 35.195L45.5729 35.3396ZM45.5629 24.8339L45.0844 24.9792L45.0864 24.9854L45.5629 24.8339ZM1.57656 12.299L1.57656 12.2934L0.576562 12.2939L0.576565 12.2995L1.57656 12.299ZM1.56623 28.4885C1.58164 23.0915 1.5791 17.6948 1.57656 12.299L0.576565 12.2995C0.579101 17.6955 0.581635 23.0905 0.566229 28.4856L1.56623 28.4885ZM2.29893 36.9533C1.69417 34.1734 1.34851 31.3365 1.56475 28.5254L0.5677 28.4487C0.341487 31.3894 0.704763 34.3296 1.32178 37.1658L2.29893 36.9533ZM2.55953 37.8224C2.47034 37.5208 2.38066 37.2174 2.28886 36.9145L1.33185 37.2046C1.4225 37.5037 1.51121 37.8037 1.60057 38.106L2.55953 37.8224ZM2.56218 37.8314L2.55954 37.8225L1.60056 38.1059L1.6032 38.1149L2.56218 37.8314ZM3.53157 40.6423C3.16457 39.7246 2.84314 38.7821 2.56219 37.8314L1.60319 38.1148C1.89191 39.0918 2.22327 40.0639 2.60306 41.0136L3.53157 40.6423ZM20.6428 56.4172C12.9833 54.0293 6.58929 48.041 3.52941 40.637L2.60522 41.0189C5.77488 48.6885 12.3931 54.8928 20.3451 57.3719L20.6428 56.4172ZM32.4586 57.4797C28.5083 57.9933 24.4371 57.635 20.6468 56.4185L20.3412 57.3706C24.2736 58.6328 28.4933 59.0036 32.5875 58.4714L32.4586 57.4797ZM47.2479 50.7097C43.1704 54.4142 37.9324 56.8353 32.4646 57.479L32.5815 58.4721C38.2605 57.8036 43.6917 55.2917 47.9203 51.4499L47.2479 50.7097ZM48.0848 56.6604C48.0861 54.8002 48.0873 52.9396 48.0841 51.0789L47.0841 51.0807C47.0873 52.94 47.0861 54.7994 47.0848 56.6597L48.0848 56.6604ZM48.0848 56.6603V56.66H47.0848V56.6603H48.0848ZM48.0848 56.6668V56.6603H47.0848V56.6668H48.0848ZM48.0916 64.4898C48.0816 61.8821 48.0831 59.275 48.0848 56.6671L47.0848 56.6665C47.0831 59.274 47.0816 61.8833 47.0916 64.4936L48.0916 64.4898ZM54.9503 58.3676C53.51 61.2435 50.605 63.2393 47.4727 64.006L47.7105 64.9773C51.0692 64.1552 54.248 62.0031 55.8445 58.8154L54.9503 58.3676ZM55.8938 55.9586C55.6174 56.8129 55.3562 57.6157 54.9575 58.3538L55.8373 58.8291C56.2868 57.9971 56.5736 57.106 56.8452 56.2664L55.8938 55.9586ZM55.9053 55.9268L55.9053 55.9268L56.8338 56.2982L56.8338 56.2982L55.9053 55.9268ZM55.8989 55.943L55.8938 55.9586L56.8453 56.2663L56.8504 56.2507L55.8989 55.943ZM56.3894 54.5215C56.2058 54.9945 56.0498 55.4767 55.8989 55.9428L56.8503 56.2508C57.0027 55.7801 57.1501 55.3252 57.3216 54.8833L56.3894 54.5215ZM56.3862 39.0958C56.3927 44.2987 56.3992 49.499 56.3555 54.6982L57.3555 54.7066C57.3992 49.5018 57.3927 44.2966 57.3862 39.0946L56.3862 39.0958ZM56.3862 39.0941V39.0952H57.3862V39.0941H56.3862ZM56.3862 39.0923V39.0941H57.3862V39.0923H56.3862ZM56.3862 39.0892V39.0923H57.3862V39.0892H56.3862ZM56.3857 29.4864C56.3781 32.6876 56.3821 35.8892 56.3862 39.0898L57.3862 39.0885C57.3821 35.8877 57.3781 32.6879 57.3857 29.4888L56.3857 29.4864ZM55.6681 23.5151C56.0989 25.4948 56.4004 27.4863 56.3857 29.4839L57.3856 29.4913C57.4011 27.3911 57.0842 25.3198 56.6452 23.3024L55.6681 23.5151ZM55.6382 23.4223L55.6782 23.554L56.6351 23.2635L56.5951 23.1318L55.6382 23.4223ZM55.6368 23.4178L55.6385 23.4232L56.5948 23.131L56.5932 23.1255L55.6368 23.4178ZM54.6602 20.4367C55.0242 21.4081 55.328 22.4046 55.6367 23.4174L56.5933 23.1259C56.2861 22.1181 55.9734 21.0915 55.5966 20.0858L54.6602 20.4367ZM36.8661 3.89986C44.9184 6.28125 51.6866 12.5895 54.6609 20.4385L55.596 20.0841C52.5116 11.9444 45.5034 5.41144 37.1497 2.94092L36.8661 3.89986ZM22.2666 3.54786C27.0671 2.42938 32.151 2.4688 36.8627 3.89884L37.1531 2.94194C32.2566 1.45582 26.9931 1.41982 22.0397 2.57394L22.2666 3.54786ZM22.1184 3.59387C22.1782 3.57574 22.2382 3.55758 22.2982 3.53941L22.0082 2.58239C21.9483 2.60052 21.8885 2.61864 21.8286 2.63678L22.1184 3.59387ZM18.5786 4.77935C19.7266 4.31842 20.9087 3.96014 22.1184 3.59387L21.8286 2.63678C20.6258 3.00096 19.4015 3.37134 18.206 3.85136L18.5786 4.77935ZM10.7605 9.7377C13.0163 7.61708 15.7207 5.99476 18.588 4.77548L18.1966 3.85523C15.2467 5.10967 12.4354 6.79067 10.0756 9.00911L10.7605 9.7377ZM9.87732 4.7159C9.87045 6.26661 9.86345 7.82848 9.91839 9.39097L10.9178 9.35584C10.8636 7.81642 10.8704 6.27435 10.8773 4.72034L9.87732 4.7159ZM9.87733 4.71397L9.87732 4.71599L10.8773 4.72025L10.8773 4.71823L9.87733 4.71397ZM9.87733 4.71555V4.7161H10.8773V4.71555H9.87733ZM9.87736 4.7076L9.87733 4.71329L10.8773 4.71781L10.8773 4.71212L9.87736 4.7076ZM9.87787 2.07958C9.88512 2.95398 9.88125 3.82913 9.87736 4.70764L10.8773 4.71207C10.8812 3.83462 10.8851 2.95312 10.8778 2.0713L9.87787 2.07958ZM1.07628 2.57544H10.3779V1.57544H1.07628V2.57544ZM1.57656 12.2934C1.57496 8.8873 1.57337 5.48154 1.57628 2.07587L0.576283 2.07501C0.573366 5.48146 0.574964 8.88788 0.576562 12.2939L1.57656 12.2934ZM26.3327 13.2488C29.9701 12.702 33.7767 13.3811 37.0048 15.1417L37.4836 14.2637C34.065 12.3992 30.0381 11.6805 26.184 12.26L26.3327 13.2488ZM16.9438 17.9317C19.4566 15.4116 22.8109 13.7719 26.3318 13.249L26.1849 12.2598C22.4606 12.8129 18.9067 14.5469 16.2357 17.2256L16.9438 17.9317ZM11.8252 29.3538C11.9961 25.0828 13.8413 20.8902 16.9348 17.9405L16.2447 17.2168C12.9578 20.3509 11.007 24.7912 10.826 29.3138L11.8252 29.3538ZM14.996 40.0312C12.7759 36.9694 11.6492 33.1346 11.825 29.357L10.8261 29.3105C10.6399 33.3111 11.8311 37.37 14.1864 40.6182L14.996 40.0312ZM23.7273 46.3469C20.2249 45.2954 17.1596 42.9805 14.9943 40.029L14.188 40.6205C16.4674 43.7275 19.707 46.1841 23.4398 47.3047L23.7273 46.3469ZM37.1237 44.9939C33.0948 47.2428 28.1301 47.7647 23.7368 46.3498L23.4303 47.3017C28.0921 48.803 33.344 48.2489 37.6111 45.8671L37.1237 44.9939ZM45.0943 35.195C43.8468 39.3248 40.8758 42.8722 37.1213 44.9953L37.6135 45.8658C41.5768 43.6246 44.7247 39.8766 46.0516 35.4842L45.0943 35.195ZM45.0864 24.9854C46.1337 28.2787 46.1409 31.8936 45.0963 35.1885L46.0495 35.4907C47.1569 31.9979 47.149 28.1715 46.0394 24.6824L45.0864 24.9854ZM37.0022 15.1402C40.8072 17.2457 43.8198 20.8149 45.0844 24.9792L46.0413 24.6886C44.6965 20.2603 41.5047 16.4887 37.4863 14.2652L37.0022 15.1402Z" fill="white"/>
</g>
</svg>
